<svg data-v-1e27128c="" xmlns="http://www.w3.org/2000/svg" viewBox="0 0 111 132" className="empty-item"><g data-v-1e27128c="" fill="none" fill-rule="evenodd"><path data-v-1e27128c="" fill="#FFF" d="M16 126h78V32H16z"></path> <path data-v-1e27128c="" fill="#DCDCE6" d="M15 127h80V31H15v96zm2-2h76V33H17v92z"></path> <path data-v-1e27128c="" stroke="#ED234B" stroke-linecap="round" stroke-width="2" d="M7.567 48.92l2.5 4.33a3 3 0 0 0 5.196-3l-3.75-6.495a5.5 5.5 0 0 0-9.526 5.5l7.5 12.99a5.5 5.5 0 1 0 9.526-5.5l-1-1.732" opacity=".7" class="empty-item__clip-01"></path> <path data-v-1e27128c="" stroke="#FF7450" stroke-linecap="round" stroke-width="2" d="M79.933 114.42l-2.5 4.33a3 3 0 0 1-5.196-3l3.75-6.495a5.5 5.5 0 0 1 9.526 5.5l-7.5 12.99a5.5 5.5 0 1 1-9.526-5.5l1-1.732" opacity=".7" class="empty-item__clip-02"></path> <path data-v-1e27128c="" stroke="#9B9BA0" stroke-linecap="round" stroke-width="2" d="M92.041 9.311l4.83-1.294a3 3 0 0 1 1.553 5.796l-7.245 1.94A5.5 5.5 0 1 1 88.332 5.13l14.489-3.882a5.5 5.5 0 1 1 2.847 10.625l-1.932.517" opacity=".7" class="empty-item__clip-03"></path> <path data-v-1e27128c="" fill="#FFF" d="M69 57V33.414L92.585 57z"></path> <path data-v-1e27128c="" fill="#DCDCE6" d="M68 31v27h27L68 31zm2 4.828L90.171 56H70V35.828z"></path> <path data-v-1e27128c="" stroke="#DCDCE6" stroke-linecap="round" stroke-width="2" d="M55 61.5v5M55 91.5v5M72.5 79h-5M42.5 79h-5M67.374 66.626L63.84 70.16M46.161 87.839l-3.535 3.535M67.374 91.374L63.84 87.84M46.161 70.161l-3.535-3.535" class="empty-item__effect"></path></g></svg>