<svg width="134" height="22" viewBox="0 0 134 22" fill="none" xmlns="http://www.w3.org/2000/svg">
  <path fill-rule="evenodd" clip-rule="evenodd" d="M109.697 7.33056C113.036 7.33056 114.838 9.96446 114.838 12.4421C114.838 14.9814 113.202 17.7143 109.607 17.7143C108.484 17.7143 107.4 17.3087 106.55 16.5745L106.328 16.3816V21.8218C106.328 21.9193 106.235 22 106.119 22H103.99C103.876 22 103.782 21.9193 103.782 21.8218V7.78971C103.782 7.68923 103.876 7.60928 103.99 7.60928H106.119C106.235 7.60928 106.328 7.68923 106.328 7.78971V8.70875L106.551 8.50705C107.411 7.73764 108.497 7.33056 109.697 7.33056ZM70.9514 7.3308C71.868 7.3308 72.7904 7.51625 73.5312 7.84543L73.8451 7.99753C73.9011 8.03274 73.9313 8.08555 73.9313 8.14276V10.6204C73.9313 10.7194 73.8384 10.7994 73.7242 10.7994C73.6505 10.7994 73.5819 10.7495 73.5665 10.7348L73.4485 10.6146C72.6916 9.83928 71.8034 9.46227 70.7325 9.46227C69.0344 9.46227 67.6008 10.828 67.6008 12.4468C67.6008 14.2269 68.943 15.4701 70.8644 15.4701C71.7617 15.4701 72.5468 15.1577 73.2567 14.5169L73.5606 14.2247C73.6719 14.0978 73.9298 14.1792 73.9298 14.3311L73.9313 16.7896C73.9313 16.8454 73.8428 16.9268 73.7898 16.9598C72.8869 17.3955 71.9516 17.5994 70.8438 17.5994C67.6156 17.5994 65.0867 15.3696 65.0867 12.5245C65.0867 9.56349 67.6074 7.3308 70.9514 7.3308ZM60.0011 4.39648C60.0937 4.39648 60.1707 4.44624 60.1978 4.51684L60.2082 4.57325V7.91568H61.9277C62.0197 7.91568 62.0994 7.96779 62.1276 8.03857L62.1385 8.09465V9.56012C62.1385 9.63758 62.0781 9.70283 61.9944 9.72583L61.9277 9.73469H60.2082V17.4229C60.2082 17.5016 60.1497 17.567 60.0671 17.5901L60.0011 17.599H57.8895C57.7981 17.599 57.7213 17.5483 57.6942 17.4784L57.6838 17.4229V9.73469H56.8156C56.7248 9.73469 56.6481 9.68493 56.6211 9.61545L56.6107 9.56012V8.09465C56.6107 8.0166 56.6711 7.94889 56.7518 7.92493L56.8156 7.91568H57.6838V4.57325C57.6838 4.49521 57.7423 4.4289 57.8242 4.4055L57.8895 4.39648H60.0011ZM41.1366 7.33056C42.3233 7.33056 43.403 7.73324 44.2595 8.49238L44.4843 8.69115V7.78458C44.4843 7.68483 44.5779 7.60561 44.6914 7.60561H46.82C46.9342 7.60561 47.0293 7.68483 47.0293 7.78458V17.107C47.0293 17.206 46.9364 17.283 46.82 17.283H44.6914C44.5749 17.283 44.4843 17.206 44.4843 17.107V16.2811L44.261 16.4718C43.4134 17.1987 42.3277 17.5992 41.2052 17.5992C37.7705 17.5992 35.9736 14.9763 35.9736 12.3856C35.9736 9.93585 37.7831 7.33056 41.1366 7.33056ZM35.8782 4.39624C35.9185 4.39624 35.9522 4.41563 35.9666 4.44358L35.974 4.47399V6.18518C35.974 6.21653 35.9503 6.24294 35.9158 6.25418L35.8782 6.25999H32.4575C31.7407 6.25999 31.2788 6.6606 31.2204 7.31513L31.2141 7.45922V8.47361H34.9797C35.0223 8.47361 35.059 8.49424 35.0747 8.52343L35.0829 8.55502V10.2141C35.0829 10.2471 35.0568 10.2752 35.0198 10.2872L34.9797 10.2934H31.2517V17.5232C31.2517 17.554 31.2256 17.5811 31.1902 17.5927L31.1522 17.5987H28.7082C28.6651 17.5987 28.6277 17.5793 28.6118 17.5523L28.6035 17.5232V7.21864C28.6035 6.26733 28.8666 5.54926 29.3863 5.08277C29.8506 4.66936 30.5233 4.44022 31.3904 4.40198L31.6564 4.39624H35.8782ZM118.624 7.69701C118.714 7.69701 118.793 7.74865 118.821 7.8185L118.832 7.87378V12.9787C118.832 14.7383 119.456 15.4887 120.917 15.4887C122.32 15.4887 122.95 14.7996 123 13.1935L123.003 12.9787V7.87378C123.003 7.79515 123.063 7.7292 123.145 7.70596L123.21 7.69701H125.315C125.406 7.69701 125.486 7.74865 125.514 7.8185L125.525 7.87378V13.1738C125.525 15.986 123.846 17.5989 120.917 17.5989C118.079 17.5989 116.415 16.0822 116.316 13.4262L116.312 13.1738V7.87378C116.312 7.79691 116.372 7.7299 116.452 7.70617L116.517 7.69701H118.624ZM130.111 7.3308C131.358 7.3308 132.417 7.88241 133.056 8.85416L133.171 9.04126L133.239 9.17833C133.246 9.19565 133.248 9.20556 133.248 9.21069C133.248 9.26075 133.224 9.3071 133.18 9.34045L133.13 9.36912L131.392 10.1928C131.284 10.2333 131.193 10.2099 131.137 10.149L131.102 10.0967L131.074 10.0505C130.862 9.65151 130.429 9.38379 129.999 9.38379C129.618 9.38379 129.192 9.65664 129.192 10.0476C129.192 10.4963 129.718 10.7848 130.454 11.0881L131.447 11.4808L131.791 11.6259C132.934 12.1312 134.001 12.8696 134.001 14.3105C134.001 16.1545 132.313 17.5994 130.154 17.5994C128.499 17.5994 127.013 16.7861 126.385 15.5485L126.268 15.2956L126.262 15.2596C126.262 15.2017 126.294 15.1496 126.341 15.1203L128.247 14.3509C128.262 14.3457 128.278 14.3435 128.302 14.3435C128.348 14.3435 128.39 14.3566 128.423 14.3746L128.462 14.4044L128.519 14.4939C128.979 15.2523 129.438 15.5471 130.154 15.5471C130.798 15.5471 131.451 15.1833 131.451 14.4888C131.451 14.1523 131.3 13.9764 130.964 13.7617L130.829 13.679L128.914 12.7746C127.701 12.1937 126.773 11.6385 126.773 10.2434C126.773 8.63785 128.27 7.3308 130.111 7.3308ZM52.3518 7.3308C53.599 7.3308 54.6583 7.88241 55.2972 8.85416L55.412 9.04126L55.4437 9.1014C55.4805 9.17108 55.4886 9.20042 55.4901 9.21069C55.4901 9.26075 55.4652 9.3071 55.4214 9.34045L55.3715 9.36912L53.632 10.1928C53.5241 10.2333 53.4351 10.2099 53.3793 10.149L53.3438 10.0967L53.3173 10.0505C53.1021 9.65151 52.6709 9.38379 52.2412 9.38379C51.8602 9.38379 51.4334 9.65664 51.4334 10.0476C51.4334 10.4963 51.9584 10.7848 52.6953 11.0881L53.6888 11.4808L54.0332 11.6259C55.1767 12.1312 56.2426 12.8696 56.2426 14.3105C56.2426 16.1545 54.5533 17.5994 52.396 17.5994C50.7406 17.5994 49.2557 16.7861 48.6267 15.5485L48.5081 15.2956L48.5037 15.2596C48.5037 15.2017 48.5354 15.1496 48.5825 15.1203L50.3689 14.3971C50.4321 14.3722 50.4741 14.356 50.4871 14.3516C50.504 14.3457 50.5187 14.3435 50.5438 14.3435C50.5895 14.3435 50.6319 14.3566 50.6641 14.3746L50.7037 14.4044L50.7598 14.4939C51.2212 15.2523 51.6803 15.5471 52.396 15.5471C53.0402 15.5471 53.6917 15.1833 53.6917 14.4888C53.6917 14.1523 53.5432 13.9764 53.2059 13.7617L53.0704 13.679L51.1556 12.7746L50.8008 12.6003C49.7662 12.0743 49.0152 11.499 49.0152 10.2434C49.0152 8.63785 50.5114 7.3308 52.3518 7.3308ZM80.2 7.33056C81.3866 7.33056 82.4664 7.73324 83.3229 8.49238L83.5477 8.69115V7.78458C83.5477 7.68483 83.6413 7.60561 83.7548 7.60561H85.8834C85.9976 7.60561 86.0927 7.68483 86.0927 7.78458V17.107C86.0927 17.206 85.9998 17.283 85.8834 17.283H83.7548C83.6383 17.283 83.5477 17.206 83.5477 17.107V16.2811L83.3243 16.4718C82.4767 17.1987 81.3911 17.5992 80.2685 17.5992C76.8339 17.5992 75.037 14.9763 75.037 12.3856C75.037 9.93585 76.8464 7.33056 80.2 7.33056ZM98.6458 7.33056C100.27 7.33056 102.197 8.01761 102.303 11.2359L102.307 11.5179V17.0571C102.307 17.134 102.247 17.2001 102.165 17.2234L102.1 17.2324H99.9968C99.9096 17.2324 99.8341 17.185 99.8044 17.1229L99.7912 17.074V11.8135C99.7912 10.1493 99.2495 9.37328 98.0864 9.37328C96.5718 9.37328 96.2191 10.5309 96.195 12.2914L96.19 17.0872C96.1753 17.1541 96.1166 17.2069 96.0432 17.2253L95.9858 17.2324H93.886C93.7964 17.2324 93.7185 17.1822 93.691 17.1125L93.6804 17.0571V12.1443C93.6804 10.8542 93.4836 9.37328 91.9498 9.37328C90.4537 9.37328 90.1079 10.4786 90.0835 12.2779L90.0821 17.0571C90.0821 17.134 90.0212 17.2001 89.938 17.2234L89.872 17.2324H87.7707C87.6829 17.2324 87.6049 17.1817 87.5772 17.1123L87.5666 17.0571V7.78164C87.5666 7.70302 87.625 7.63659 87.7062 7.61317L87.7707 7.60414H89.872C89.964 7.60414 90.0433 7.65578 90.0713 7.72601L90.0821 7.78164V8.32661L90.2988 8.15278C90.9481 7.63055 91.7736 7.33056 92.5586 7.33056C93.6516 7.33056 94.5564 7.70622 95.2537 8.44698L95.4109 8.6244L95.5112 8.74029L95.6136 8.6288C96.358 7.81538 97.4924 7.33056 98.6458 7.33056ZM109.213 9.40624C107.245 9.40624 106.217 10.9641 106.217 12.503C106.217 14.0117 107.154 15.6385 109.213 15.6385C111.34 15.6385 112.292 14.0645 112.292 12.503C112.292 10.9612 111.34 9.40624 109.213 9.40624ZM41.5099 9.38427C39.5464 9.38427 38.5197 10.9238 38.5197 12.4472C38.5197 13.9384 39.4557 15.5469 41.5099 15.5469C43.6414 15.5469 44.5959 13.9897 44.5959 12.4472C44.5959 10.9216 43.6414 9.38427 41.5099 9.38427ZM80.5737 9.38427C78.6102 9.38427 77.5835 10.9238 77.5835 12.4472C77.5835 13.9384 78.5196 15.5469 80.5737 15.5469C82.7053 15.5469 83.6597 13.9897 83.6597 12.4472C83.6597 10.9216 82.7053 9.38427 80.5737 9.38427Z" fill="black"></path>
  <path fill-rule="evenodd" clip-rule="evenodd" d="M1.34282 5.72583L10.3502 21.9611C4.57775 21.6241 0 16.8429 0 10.9913C0 9.21953 0.419882 7.54632 1.16511 6.06438L1.34282 5.72583ZM3.22245 3.21899L21.719 13.4627C20.8036 17.4395 17.7306 20.5903 13.796 21.6205L13.4751 21.6994L3.22245 3.21899ZM11.0011 0C16.7559 0 21.4757 4.41468 21.9594 10.038L21.9813 10.3404L5.73179 1.34091C7.29682 0.486539 9.09213 0 11.0011 0Z" fill="#ED234B"></path>
</svg>